<svg width="217" height="226" viewBox="0 0 217 226" fill="none" xmlns="http://www.w3.org/2000/svg">
<path d="M56.7969 83.976C63.499 58.8765 77.1251 7.72914 78.0127 3.93627C79.1222 -0.804823 80.6178 67.1115 92.3852 69.9054C104.153 72.6994 139.063 22.6042 141.741 18.2357C144.42 13.8671 118.458 75.2641 136.406 87.0324C154.354 98.8006 208.77 89.2028 213.062 88.5538C217.354 87.9048 166.95 105.13 164.636 122.097C162.322 139.063 187.268 191.695 190.266 196.577C193.264 201.46 153.597 144.498 129.457 152.112C105.316 159.726 105.064 213.882 105.753 221.552C106.442 229.222 93.588 174.457 73.7907 170.591C53.9934 166.724 22.4171 188.42 14.617 189.904C6.81682 191.389 61.1043 157.569 56.1734 139.717C51.316 122.131 10.6311 106.56 4.16851 104.853M4.16851 104.853C4.07059 104.827 3.98053 104.804 3.89857 104.785C3.18732 104.616 3.34153 104.666 4.16851 104.853ZM4.16851 104.853C9.72653 106.105 45.6738 113.485 53.5125 101.551" stroke="#6B66DA" style="stroke:#6B66DA;stroke:color(display-p3 0.4214 0.3986 0.8542);stroke-opacity:1;" stroke-width="6" stroke-linecap="round" stroke-linejoin="round"/>
<path d="M166.517 50.8985L200.498 12.4247" stroke="#6B66DA" style="stroke:#6B66DA;stroke:color(display-p3 0.4214 0.3986 0.8542);stroke-opacity:1;" stroke-width="6" stroke-linecap="round" stroke-linejoin="round"/>
<path d="M178.796 65.1342L209.493 56.6991" stroke="#6B66DA" style="stroke:#6B66DA;stroke:color(display-p3 0.4214 0.3986 0.8542);stroke-opacity:1;" stroke-width="6" stroke-linecap="round" stroke-linejoin="round"/>
</svg>
