<svg width="128" height="38" viewBox="0 0 128 38" fill="none" xmlns="http://www.w3.org/2000/svg">
<path d="M18.4999 7.5C13.1665 12.1667 2.79988 21.6 3.99988 22C5.49988 22.5 17 20.5 16.5 21.5C16 22.5 8.5 35 10 35C11.5 35 31 17.5 31 16C31 14.5 20.5 15.5 20.5 15C20.5 14.5 33 3.5 23 2.5" stroke="#8F89FA" style="stroke:#8F89FA;stroke:color(display-p3 0.5611 0.5390 0.9800);stroke-opacity:1;" stroke-width="4" stroke-linecap="round"/>
<path d="M33 29.9995C46.6667 24.1662 70.7 11.3995 57.5 6.99955C41 1.49955 47 36.9995 66 24.9995C85 12.9995 81 5.99909 75.5 5.49909C70 4.99909 63 28.4991 106 20.4991" stroke="#8F89FA" style="stroke:#8F89FA;stroke:color(display-p3 0.5611 0.5390 0.9800);stroke-opacity:1;" stroke-width="4" stroke-linecap="round"/>
</svg>
